<?xml version="1.0" encoding="UTF-8"?> <svg xmlns="http://www.w3.org/2000/svg" xmlns:xlink="http://www.w3.org/1999/xlink" version="1.1" id="Layer_1" x="0px" y="0px" viewBox="0 0 360 142.49" style="enable-background:new 0 0 360 142.49;" xml:space="preserve"> <style type="text/css"> .st0{fill:#FFC300;} .st1{fill:#FFFFFF;} .st2{fill:#CD0000;} </style> <g> <path class="st0" d="M360,131.8c0,5.9-4.9,10.69-10.94,10.69H10.94C4.9,142.49,0,137.71,0,131.8V10.69C0,4.78,4.9,0,10.94,0h338.13 C355.1,0,360,4.78,360,10.69V131.8z"></path> <g> <path d="M324.9,91.58H115.98c-2.42-1.72-5.37-2.75-8.56-2.75c-3.19,0-6.13,1.03-8.55,2.75H29.88c-0.69,0-1.41,0.57-1.59,1.27 l-5.65,21.54c-0.18,0.7,0.24,1.28,0.93,1.28h75.35c2.4,1.7,5.34,2.71,8.5,2.71c3.17,0,6.1-1.01,8.51-2.71h202.66 c0.69,0,1.41-0.57,1.6-1.28l5.64-21.54C326.02,92.15,325.59,91.58,324.9,91.58z"></path> <g> <path class="st1" d="M47.62,98.82h-4.48l-3.34,12.64h-3.15l3.34-12.64h-4.48l0.82-3.1h12.11L47.62,98.82z"></path> <path class="st1" d="M51.77,111.46h-3.16l4.2-15.74h3.14L51.77,111.46z"></path> <path class="st1" d="M69.52,100.44c-0.15,1.78-1.51,2.39-2.75,2.39h-4.14l1.06-4.05h3.67C68.89,98.78,69.62,99.33,69.52,100.44z M72.87,100.02c0.24-2.66-1.39-4.3-4.92-4.3h-6.59l-4.17,15.74h3.15l1.5-5.66h3.33l1.32,5.66h3.37l-1.39-6.11 C70.66,104.71,72.6,103.02,72.87,100.02z"></path> <path class="st1" d="M88.48,98.8h-7.69l-0.72,2.72h4.44l-0.81,3.06h-4.43l-1.02,3.8h8.04l-0.82,3.08H74.28l4.17-15.74h10.84 L88.48,98.8z"></path> </g> <g> <path class="st1" d="M136.44,104.96h-3.57l1.76-2.86c0.58-0.94,1.14-1.87,1.43-2.45c0.02,0.58,0.08,1.53,0.15,2.45L136.44,104.96 z M140.37,111.46l-1.78-15.74h-3.06l-10.15,15.74h3.48l2.17-3.5h5.68l0.31,3.5H140.37z"></path> <path class="st1" d="M157.98,104.94c-1.18,4.42-3.38,6.77-7.62,6.77c-3.32,0-5.54-1.69-5.21-5.43c0.04-0.54,0.19-1.46,0.36-2.09 l2.24-8.48h3.15l-2.16,8.15c-0.13,0.54-0.29,1.28-0.37,2.04c-0.16,1.83,0.75,2.72,2.64,2.72c1.83,0,3.14-1.08,3.85-3.73l2.4-9.18 h3.16L157.98,104.94z"></path> <path class="st1" d="M175.78,98.82h-4.47l-3.35,12.64h-3.15l3.35-12.64h-4.49l0.81-3.1h12.11L175.78,98.82z"></path> <path class="st1" d="M187.97,102.4c-0.33,3.71-2.53,6.19-4.96,6.19c-1.78,0-3.06-1.19-2.84-3.8c0.33-3.71,2.53-6.18,4.96-6.18 C186.92,98.6,188.2,99.78,187.97,102.4z M191.3,101.94c0.36-4.05-1.79-6.48-5.65-6.48c-4.71,0-8.33,4.46-8.79,9.76 c-0.36,4.06,1.79,6.48,5.66,6.48C187.21,111.71,190.83,107.26,191.3,101.94z"></path> </g> <g> <path class="st1" d="M213.46,100.64c-0.53-1.22-1.22-2.07-2.84-2.07c-2.54,0-4.53,2.97-4.83,6.21c-0.23,2.57,0.97,3.8,2.77,3.8 c1.25,0,2.25-0.7,3.31-1.99l2.34,1.83c-1.85,2.26-3.76,3.29-6.26,3.29c-3.01,0-5.9-1.8-5.47-6.48c0.53-5.92,4.48-9.76,8.77-9.76 c3.1,0,4.54,1.29,5.43,3.6L213.46,100.64z"></path> <path class="st1" d="M231.87,98.8h-7.69l-0.71,2.72h4.43l-0.81,3.06h-4.44l-1.01,3.8h8.04l-0.81,3.08h-11.19l4.16-15.74h10.85 L231.87,98.8z"></path> <path class="st1" d="M246.01,111.46h-2.81l-3.35-8.91c-0.24-0.58-0.53-1.37-0.63-1.77c-0.15,0.58-0.62,2.55-0.87,3.44l-1.9,7.24 h-3.11l4.16-15.74h3.01l3.31,8.64c0.24,0.58,0.45,1.36,0.54,1.78c0.17-0.59,0.63-2.57,0.87-3.45l1.83-6.98h3.11L246.01,111.46z"></path> <path class="st1" d="M265.65,98.82h-4.47l-3.35,12.64h-3.16l3.36-12.64h-4.48l0.81-3.1h12.12L265.65,98.82z"></path> <path class="st1" d="M280.63,98.8h-7.69l-0.71,2.72h4.43l-0.81,3.06h-4.43l-1.01,3.8h8.03l-0.82,3.08h-11.18l4.16-15.74h10.84 L280.63,98.8z"></path> <path class="st1" d="M294.45,100.44c-0.17,1.78-1.52,2.39-2.76,2.39h-4.14l1.06-4.05h3.67 C293.8,98.78,294.53,99.33,294.45,100.44z M297.78,100.02c0.23-2.66-1.38-4.3-4.93-4.3h-6.59l-4.16,15.74h3.15l1.5-5.66h3.32 l1.33,5.66h3.37l-1.39-6.11C295.57,104.71,297.51,103.02,297.78,100.02z"></path> <path class="st1" d="M310.99,100.32c-0.74-1.03-1.78-1.91-3.46-1.91c-1.64,0-2.36,0.7-2.44,1.55c-0.07,0.89,0.56,1.25,2.72,1.98 c2.12,0.69,4.31,1.85,4.07,4.47c-0.31,3.58-3.14,5.3-6.74,5.3c-3.19,0-5.28-1.53-6.14-3.27l2.72-1.82 c1.01,1.55,2.55,2.06,4.17,2.06c1.35,0,2.53-0.51,2.66-1.88c0.08-0.84-0.66-1.38-2.98-2.14c-2.35-0.74-3.97-1.94-3.77-4.23 c0.31-3.51,3.23-4.98,6.36-4.98c2.79,0,4.52,1.25,5.54,2.9L310.99,100.32z"></path> </g> <path class="st2" d="M94.89,103.62c0-6.92,5.63-12.54,12.54-12.54c6.92,0,12.55,5.62,12.55,12.54c0,6.92-5.63,12.54-12.55,12.54 C100.51,116.15,94.89,110.53,94.89,103.62z"></path> <path class="st1" d="M108.65,107.5c-1.16,0.92-2.51,1.67-3.94,1.67c-1.64,0-3.13-0.83-2.76-2.58c0.37-1.72,1.63-2.58,3.13-3.55 L108.65,107.5z M106.34,100.67c-0.56-0.69-1.34-1.56-1.17-2.29c0.19-0.92,1.33-1.6,2.19-1.6c0.93,0,1.83,0.45,1.61,1.49 C108.79,99.11,107.35,100.07,106.34,100.67z M111.24,110.7h3.06l0.05-0.06l-2.9-3.52c1.85-1.8,2.73-4.17,3.3-6.42h-2.23 c-0.28,1.77-0.91,3.54-2.12,5.1l-2.98-3.74c1.67-0.94,3.5-2.38,3.81-3.83c0.53-2.52-1.43-3.29-3.47-3.29 c-2.12,0-4.31,0.97-4.8,3.29c-0.29,1.36,0.32,2.54,1.03,3.46c-2.07,1.28-3.79,2.61-4.29,4.98c-0.58,2.64,1.36,4.33,3.85,4.33 c2.4,0,4.11-0.55,6.22-2.22L111.24,110.7z"></path> <g> <path d="M327.78,84.83h2.04v0.3h-0.85v2.22h-0.34v-2.22h-0.86V84.83z"></path> <path d="M332.22,87.35v-1.49c0-0.08,0-0.4,0-0.63h0l-0.72,2.12h-0.33l-0.71-2.12h-0.02c0,0.23,0.02,0.55,0.02,0.63v1.49h-0.33 v-2.53h0.48l0.73,2.13h0.01l0.71-2.13h0.48v2.53H332.22z"></path> </g> <g> <path class="st1" d="M131.88,24.11c-9.14,0.42-16.76,2.74-23.3,7.07c-6.85,4.61-11.46,11.8-14.13,21.98l0,0.06l-0.01,0.08 c-0.49,2.45-0.73,4.9-0.73,7.3c0,5.15,1.11,10.03,3.26,13.97c1.89,3.94,5.73,7.68,11.42,11.08l0.09,0.04l0.09,0.05 c6.81,3.22,13.2,4.48,19.52,3.82c6.24-0.4,12.2-2.15,17.65-5.18c10.4-5.7,17.1-16.52,18.37-29.65c0.04-0.56,0.05-1.16,0.05-1.77 c0-1.87-0.18-3.94-0.51-5.96c-0.57-4.52-2.76-8.89-6.68-13.37l-0.08-0.09l-0.07-0.08c-6.64-6.16-14.99-9.31-24.83-9.35h-0.06 H131.88z M115.48,61.34c0-2.98,0.95-6.06,2.13-8.43l0.05-0.07l0.02-0.07c1.41-3.4,4.15-6.58,7.52-8.75 c3.59-2.29,9.02-2.55,12.61-0.58c3.16,1.55,4.98,4.93,4.98,9.12c0,0.14-0.01,0.27-0.01,0.41c-0.53,7.47-4.3,13.59-10.36,16.8 c-3.5,1.84-7.65,2.28-10.84,1.16c-1.29-0.56-3.02-1.56-4.24-3.24c-0.15-0.3-0.88-1.68-0.96-1.82 C115.74,64.48,115.48,62.93,115.48,61.34z"></path> <path d="M109.52,32.61c-6.47,4.37-10.86,11.23-13.4,20.98c-1.47,7.42-0.6,14.79,2.4,20.21c1.71,3.63,5.35,7.12,10.76,10.34 c6.55,3.13,12.64,4.31,18.64,3.68c6.04-0.39,11.76-2.05,16.97-4.96c9.91-5.44,16.29-15.76,17.5-28.31 c0.03-0.51,0.04-1.05,0.04-1.6c0-1.77-0.17-3.78-0.49-5.73c-0.53-4.17-2.59-8.24-6.28-12.47c-6.34-5.89-14.3-8.88-23.69-8.93 C123.13,26.25,115.8,28.46,109.52,32.61z M114.82,66.61c-0.8-1.72-1.09-3.53-1.09-5.26c0-4.11,1.66-7.85,2.34-9.21 c1.56-3.75,4.54-7.22,8.2-9.56c4.09-2.61,10.27-2.88,14.37-0.64c3.72,1.82,5.88,5.77,5.88,10.63c0,0.17-0.01,0.34-0.01,0.51 c-0.57,8.1-4.67,14.73-11.27,18.23c-4.01,2.11-8.6,2.58-12.28,1.24c-1.49-0.62-3.61-1.83-5.07-3.92L114.82,66.61z"></path> <path class="st2" d="M109.75,83.3c-5.22-3.11-8.73-6.47-10.37-9.94c-2.89-5.25-3.72-12.38-2.31-19.56 c2.47-9.48,6.73-16.16,13-20.38c6.11-4.05,13.29-6.22,21.94-6.62c9.12,0.04,16.85,2.95,22.97,8.63c3.53,4.04,5.5,7.95,6.01,11.91 v0.03c0.41,2.5,0.57,5.09,0.43,7.11c-1.17,12.22-7.36,22.26-16.99,27.54c-5.09,2.84-10.67,4.46-16.59,4.85 C122,87.48,116.09,86.3,109.75,83.3z M123.75,41.75c-3.83,2.45-6.94,6.09-8.56,9.99c-1.01,2-4.11,9.11-1.24,15.3 c0.01,0.02,1.1,2.1,1.1,2.1c1.3,1.84,3.2,3.32,5.54,4.32c3.97,1.43,8.85,0.95,13.09-1.28c6.91-3.65,11.21-10.59,11.79-19.03 v-0.02c0.17-5.5-2.22-10-6.4-12.05C134.65,38.65,128.19,38.93,123.75,41.75z"></path> </g> <g> <path class="st1" d="M175.73,24.13c-1.67,0-3.28,1.22-3.73,2.83l-16.33,58.37c-0.27,0.99-0.08,2,0.51,2.78 c0.59,0.8,1.52,1.24,2.55,1.24h26.92c13.71,0,18.32-2.58,22.92-5.96c4.9-3.58,8.56-8.68,10.05-14c0.61-2.18,0.92-4.24,0.92-6.14 c0-3.24-0.9-6.01-2.64-8.27c3.24-2.66,5.59-6.24,6.85-10.77c0.46-1.64,0.69-3.3,0.69-4.95c0-3.31-0.96-6.32-2.77-8.71 c-3.24-4.26-8.8-6.42-16.52-6.42H175.73z M193.74,63.72c2,0,3.14,0.55,3.54,1.07c0.08,0.1,0.24,0.33,0.24,0.85 c0,0.25-0.04,0.55-0.15,0.95c-0.95,3.41-3.29,5.01-7.37,5.01c0,0-7.38,0-9.35,0c0.64-2.26,1.93-6.91,2.2-7.87 C183.25,63.72,193.74,63.72,193.74,63.72z M198.49,41.7c3.12,0,3.68,0.42,3.87,0.77c0.05,0.1,0.07,0.37,0.07,0.55 c0,0.35-0.06,0.63-0.12,0.84c-0.83,2.93-4.24,3.38-6.2,3.38c0,0-6.66,0-8.58,0c0.49-1.78,1.34-4.87,1.54-5.54 C189.45,41.7,198.49,41.7,198.49,41.7z"></path> <path d="M175.73,25.86c-0.91,0-1.82,0.7-2.07,1.57L157.34,85.8c-0.13,0.47-0.04,0.93,0.22,1.28c0.26,0.34,0.69,0.54,1.18,0.54 h26.92c13.21,0,17.41-2.32,21.89-5.61c4.6-3.37,8.03-8.13,9.41-13.08c0.57-2.02,0.86-3.93,0.86-5.68c0-3.51-1.2-6.33-3.49-8.48 c3.78-2.49,6.41-6.18,7.77-11.04c0.42-1.49,0.62-2.98,0.62-4.48c0-2.93-0.83-5.59-2.41-7.67c-2.89-3.8-7.99-5.74-15.15-5.74 H175.73z M178.75,73.03c-0.14-0.18-0.18-0.43-0.1-0.68l2.6-9.3c0.16-0.58,0.81-1.07,1.41-1.07h11.08c2.31,0,4.05,0.63,4.92,1.76 c0.63,0.84,0.77,1.96,0.38,3.31c-1.16,4.16-4.19,6.26-9.03,6.26h-10.62C179.12,73.31,178.89,73.21,178.75,73.03z M185.62,48.68 c-0.13-0.18-0.17-0.43-0.1-0.69c0-0.01,1.94-6.95,1.94-6.95c0.17-0.59,0.81-1.07,1.41-1.07h9.62c2.78,0,4.49,0.48,5.24,1.44 c0.5,0.68,0.6,1.63,0.24,2.91c-0.82,2.95-3.67,4.63-7.85,4.63h-9.86C185.99,48.96,185.76,48.86,185.62,48.68z"></path> <path class="st2" d="M158.34,86.49c-0.09-0.11-0.1-0.26-0.06-0.44l16.32-58.36c0.13-0.46,0.66-0.86,1.14-0.86h29.43 c6.84,0,11.67,1.8,14.37,5.35c1.45,1.92,2.22,4.36,2.22,7.08c0,1.4-0.19,2.82-0.58,4.22c-1.37,4.89-3.93,8.43-7.82,10.82 l-0.57,0.35l0.5,0.44c2.37,1.99,3.57,4.74,3.57,8.16c0,1.65-0.28,3.48-0.83,5.42c-1.33,4.74-4.62,9.32-9.05,12.55 c-4.33,3.19-8.41,5.44-21.33,5.44h-26.92C158.55,86.66,158.41,86.6,158.34,86.49z M182.66,61.02c-1.06,0-2.07,0.77-2.35,1.77 l-2.6,9.3c-0.16,0.55-0.07,1.11,0.26,1.54c0.32,0.41,0.83,0.66,1.4,0.66h10.62c5.33,0,8.68-2.35,9.97-6.98 c0.46-1.65,0.28-3.06-0.55-4.16c-1.06-1.37-3.07-2.13-5.69-2.13H182.66z M188.87,39c-1.05,0-2.05,0.77-2.34,1.79l-1.95,6.94 c-0.14,0.55-0.05,1.11,0.27,1.53c0.32,0.43,0.83,0.67,1.41,0.67h9.86c4.64,0,7.84-1.94,8.8-5.34c0.43-1.59,0.31-2.82-0.41-3.75 c-0.95-1.24-2.86-1.83-6.01-1.83H188.87z"></path> </g> <g> <path class="st1" d="M233.71,24.13c-1.68,0-3.28,1.22-3.72,2.83l-16.32,58.37c-0.28,0.98-0.11,2,0.49,2.78 c0.59,0.78,1.52,1.24,2.55,1.24h26.94c13.69,0,18.31-2.58,22.91-5.96c4.92-3.6,8.58-8.7,10.05-14.01 c0.61-2.17,0.93-4.24,0.93-6.14c0-3.24-0.9-6.01-2.64-8.27c3.25-2.66,5.59-6.25,6.85-10.78c0.47-1.63,0.71-3.3,0.71-4.94 c0-3.29-0.95-6.3-2.77-8.71c-3.25-4.26-8.8-6.42-16.53-6.42H233.71z M251.72,63.72c2,0,3.13,0.55,3.53,1.06 c0.08,0.11,0.26,0.35,0.26,0.87c0,0.24-0.04,0.54-0.14,0.93c-0.96,3.41-3.3,5.01-7.38,5.01c0,0-7.37,0-9.35,0 c0.63-2.24,1.94-6.91,2.2-7.87C241.24,63.72,251.72,63.72,251.72,63.72z M238.3,72.8L238.3,72.8L238.3,72.8z M256.46,41.7 c3.14,0,3.64,0.55,3.75,0.68c0.17,0.17,0.19,0.52,0.19,0.69c0,0.34-0.06,0.57-0.12,0.77c-0.81,2.94-4.22,3.39-6.19,3.39 c0,0-6.66,0-8.59,0c0.5-1.78,1.36-4.87,1.55-5.54C247.44,41.7,256.46,41.7,256.46,41.7z"></path> <path d="M233.71,25.86c-0.91,0-1.82,0.7-2.06,1.57L215.33,85.8c-0.13,0.46-0.06,0.93,0.2,1.28c0.27,0.35,0.69,0.55,1.18,0.55 h26.94c13.19,0,17.4-2.32,21.89-5.61c4.61-3.38,8.03-8.15,9.4-13.08c0.57-2.02,0.86-3.93,0.86-5.68c0-3.51-1.2-6.33-3.49-8.48 c3.79-2.51,6.41-6.2,7.77-11.04c0.43-1.49,0.64-3,0.64-4.48c0-2.92-0.85-5.56-2.43-7.66c-2.9-3.8-7.99-5.74-15.15-5.74H233.71z M236.73,73.03c-0.13-0.17-0.17-0.43-0.1-0.68l2.6-9.3c0.16-0.59,0.79-1.07,1.41-1.07h11.08c2.31,0,4.05,0.63,4.9,1.74 c0.65,0.87,0.78,1.97,0.4,3.32c-1.16,4.16-4.19,6.27-9.03,6.27h-10.62C237.1,73.31,236.87,73.21,236.73,73.03z M243.6,48.68 c-0.13-0.18-0.16-0.43-0.09-0.68c0-0.01,1.94-6.95,1.94-6.95c0.16-0.59,0.8-1.07,1.42-1.07h9.6c2.8,0,4.51,0.48,5.25,1.44 c0.51,0.7,0.59,1.64,0.24,2.91c-0.83,2.95-3.69,4.63-7.86,4.63h-9.86C243.97,48.96,243.74,48.86,243.6,48.68z"></path> <path class="st2" d="M216.31,86.49c-0.08-0.1-0.09-0.25-0.04-0.43c0,0,16.31-58.37,16.31-58.37c0.12-0.46,0.66-0.86,1.14-0.86 h29.43c6.84,0,11.68,1.8,14.39,5.35c1.45,1.92,2.22,4.37,2.22,7.08c0,1.39-0.2,2.81-0.6,4.22c-1.36,4.88-3.92,8.41-7.81,10.82 l-0.57,0.35l0.52,0.44c2.36,1.99,3.55,4.74,3.55,8.16c0,1.66-0.27,3.48-0.81,5.42c-1.32,4.73-4.61,9.3-9.05,12.55 c-4.34,3.19-8.41,5.44-21.32,5.44h-26.94C216.53,86.66,216.39,86.6,216.31,86.49z M240.64,61.02c-1.05,0-2.07,0.77-2.34,1.77 l-2.6,9.3c-0.16,0.55-0.07,1.11,0.25,1.54c0.32,0.41,0.85,0.66,1.42,0.66h10.62c5.32,0,8.67-2.35,9.96-6.98 c0.48-1.65,0.29-3.05-0.55-4.16c-1.03-1.37-3.06-2.13-5.68-2.13H240.64z M246.86,39c-1.05,0-2.06,0.77-2.35,1.79l-1.94,6.94 c-0.17,0.55-0.07,1.11,0.25,1.53c0.33,0.43,0.84,0.67,1.42,0.67h9.86c4.65,0,7.84-1.95,8.79-5.34c0.45-1.58,0.32-2.81-0.39-3.75 c-0.96-1.24-2.88-1.83-6.03-1.83H246.86z"></path> </g> <g> <path class="st1" d="M37.39,25.85c-0.11,0.28-0.31,0.95-2.27,7.6l-1.69,5.78c-0.24,0.85-0.08,1.73,0.43,2.41 c0.52,0.71,1.39,1.12,2.3,1.12c0,0,1.7,0,3.32,0c-1.24,4.43-11.91,42.56-11.91,42.56c-0.08,0.31-0.12,0.61-0.12,0.91 c0,0.68,0.21,1.34,0.62,1.88c0.6,0.78,1.53,1.24,2.55,1.24h27.53c19.16,0,32.05-11.35,37.3-32.82c0.51-2.1,1.56-6.43,1.56-11.28 c0-4.48-0.89-9.4-3.96-13.42c-3.87-5.11-10.15-7.7-18.67-7.7H55.02l-15.05-0.01C38.85,24.12,37.83,24.79,37.39,25.85z M69.51,42.74c3.42,0,4.38,0.76,4.81,1.32c0.37,0.5,0.82,1.52,0.82,3.61c0,2-0.41,4.49-1.22,7.41 c-1.03,3.69-5.11,15.67-14.56,15.67c0,0-4.2,0-6.28,0c1.58-5.66,7-25.02,7.83-28C61.68,42.74,69.51,42.74,69.51,42.74z"></path> <path d="M38.98,26.53c-0.08,0.19-0.77,2.52-2.2,7.42l-1.7,5.78c-0.09,0.32-0.04,0.63,0.14,0.88c0.21,0.27,0.56,0.43,0.93,0.43 c0,0,5.32,0,5.6,0C40.83,44.34,29.24,85.8,29.24,85.8c-0.04,0.15-0.06,0.29-0.06,0.44c0,0.31,0.1,0.6,0.28,0.84 c0.25,0.34,0.69,0.54,1.16,0.54h27.53c18.53,0,30.51-10.59,35.62-31.5c0.49-2.02,1.52-6.22,1.52-10.87 c0-4.18-0.83-8.71-3.61-12.38c-3.53-4.64-9.34-7.01-17.29-7.01H55.02l-15.05-0.01C39.54,25.84,39.15,26.11,38.98,26.53z M51.04,72.3c-0.08-0.1-0.1-0.26-0.06-0.43l8.39-29.99c0.13-0.46,0.66-0.86,1.13-0.86h9.02c3.22,0,5.14,0.62,6.19,2.01 c0.78,1.03,1.18,2.58,1.18,4.64c0,2.15-0.43,4.8-1.29,7.88l0,0c-1.11,3.97-5.56,16.93-16.22,16.93h-7.93 C51.26,72.48,51.11,72.42,51.04,72.3z"></path> <path class="st2" d="M36.01,39.99l1.7-5.78c0.98-3.33,2.07-7.08,2.16-7.33c0.02-0.06,0.08-0.07,0.09-0.07h15.07l19.35,0.02 c7.63,0,13.19,2.23,16.51,6.63l0,0c5.6,7.37,2.83,18.7,1.92,22.43c-4.99,20.42-16.65,30.76-34.68,30.76H30.62 c-0.17,0-0.31-0.06-0.4-0.17c-0.08-0.11-0.1-0.26-0.05-0.44l12.59-45.04c0.05-0.28-0.01-0.5-0.15-0.66 c-0.11-0.13-0.32-0.29-0.71-0.29h-5.75c-0.08,0-0.14-0.03-0.15-0.04C36.01,40.02,36.01,39.99,36.01,39.99z M60.5,40.05 c-0.9,0-1.81,0.69-2.06,1.57l-8.39,29.99c-0.13,0.48-0.05,0.94,0.21,1.29c0.27,0.34,0.69,0.54,1.17,0.54h7.93 c11.35,0,16-13.5,17.16-17.63l0,0c0.88-3.17,1.33-5.9,1.33-8.14c0-2.27-0.47-4.03-1.37-5.23c-1.26-1.65-3.41-2.39-6.97-2.39H60.5 z"></path> </g> <g> <path class="st1" d="M304.3,24.12c-4.77,0-8.45,0.87-11.62,2.75c-2.26,1.33-9.08,5.39-11.62,14.31c-1.02,3.58-1.35,6.6-1.35,9.03 c0,4.71,1.25,7.23,1.35,7.39l0.04,0.08l0.04,0.08c3.12,5,9.08,6.63,14.5,7.58l14.36,2.54c0.67,0.11,1.46,0.37,1.84,0.56 c0.02,0.05,0.02,0.08,0.02,0.15c0,0.29-0.07,0.74-0.27,1.34c-0.21,0.14-0.74,0.32-2.14,0.45L309,70.42 c-0.69,0.08-2.49,0.08-3.94,0.08H282c-2.06,0-3.56,1.09-4.21,3.08l-2.13,5.26c-1.48,3.64-2.2,5.4-2.35,5.87 c-0.16,0.49-0.22,0.93-0.22,1.33c0,0.84,0.29,1.45,0.6,1.88c1.04,1.45,3,1.64,4.77,1.64c0,0,29.04,0.05,29.09,0.05 c0.91,0.04,12.01,0.36,18.98-6.55c5.01-4.98,6.39-10.55,7.08-15.35c0.18-1.28,0.27-2.47,0.27-3.58c0-3.08-0.69-5.57-2.12-7.84 c-3.58-5.67-11.07-6.9-17.66-7.98c-0.05,0-6.37-1.04-6.37-1.04l0,0l-1.02-0.17c-1.33-0.22-3.93-0.63-4.9-1.11 c0.03-0.43,0.21-1.15,0.43-1.56c0.14-0.24,0.29-0.51,0.36-0.56c0,0,0.07-0.05,0.25-0.09c0.38-0.08,1.7-0.28,5.76-0.26h18.87h0.3 c1.27,0.02,4.24,0.05,5.15-2.83c0,0.06,0.66-1.87,0.66-1.87l3.61-10.57c0.36-1.13,0.21-2.21-0.36-3c-0.5-0.7-1.31-1.12-2.21-1.13 c-0.06-0.01-22.47,0.01-22.47,0.01L304.3,24.12L304.3,24.12z"></path> <path d="M293.55,28.35c-2.1,1.25-8.49,5.03-10.84,13.3c-2.79,9.83-0.25,14.94-0.14,15.16c2.78,4.45,8.3,5.94,13.34,6.83 l14.37,2.54c1.12,0.19,2.65,0.73,2.95,1.15c0.71,0.98,0.13,2.74-0.06,3.26c-0.43,1.23-2.57,1.42-3.59,1.52l-0.39,0.04 c-0.79,0.09-2.57,0.09-4.15,0.09H282c-1.31,0-2.15,0.61-2.57,1.89c-0.12,0.37-1.16,2.91-2.16,5.38c-1.1,2.72-2.16,5.28-2.32,5.75 c-0.22,0.68-0.18,1.23,0.13,1.65c0.47,0.65,1.49,0.93,3.38,0.93l29.12,0.06c0.43,0.02,11.15,0.47,17.72-6.06 c4.65-4.61,5.94-9.84,6.6-14.36c0.6-4.38,0.1-7.54-1.62-10.26c-3.17-5.01-9.93-6.12-16.48-7.19l-7.38-1.21 c-2.29-0.36-5.77-0.92-6.25-1.95c-0.33-0.69,0.04-2.38,0.57-3.28c0.45-0.79,0.71-1.24,1.72-1.47c0.95-0.22,3.08-0.33,6.15-0.31 h18.87l0.33,0c1.25,0.01,2.96,0.03,3.5-1.63l0.67-1.91l3.6-10.53c0.04-0.15,0.11-0.4,0.11-0.68c0-0.26-0.06-0.54-0.23-0.78 c-0.14-0.18-0.39-0.41-0.85-0.42l-22.41,0.02l-7.88-0.03C299.85,25.84,296.44,26.64,293.55,28.35z"></path> <path class="st2" d="M309.31,73.1l0.36-0.04c1.22-0.11,3.76-0.34,4.39-2.11c0.31-0.84,0.92-2.86-0.04-4.2 c-0.64-0.89-2.8-1.41-3.58-1.54l-14.36-2.53c-4.82-0.86-10.11-2.27-12.66-6.36c-0.01-0.01-2.45-4.98,0.22-14.41 c2.24-7.89,8.38-11.54,10.4-12.73c2.72-1.62,5.98-2.37,10.25-2.37l7.88,0.02l22.4-0.01c0.04,0,0.08,0.01,0.09,0.02 c0.05,0.06,0.07,0.29-0.03,0.59l-3.58,10.5l-0.67,1.92c-0.3,0.93-1.21,0.99-2.58,0.98l-0.33-0.01h-18.85 c-3.19-0.01-5.34,0.1-6.39,0.33c-1.41,0.32-1.85,1.08-2.31,1.88c-0.61,1.04-1.15,3.1-0.64,4.22c0.7,1.5,3.89,2.01,6.98,2.5 l1.02,0.16c6.37,1.05,6.37,1.05,6.42,1.05c6.28,1.02,12.81,2.1,15.76,6.75c1.58,2.51,2.03,5.46,1.46,9.6 c-0.62,4.35-1.86,9.4-6.31,13.81c-6.26,6.21-16.92,5.77-17.02,5.76c-0.02,0-29.14-0.06-29.14-0.06c-1.83,0-2.42-0.28-2.59-0.53 c-0.04-0.06-0.16-0.24,0.01-0.78c0.13-0.43,1.28-3.22,2.29-5.68c1.07-2.6,2.06-5.05,2.2-5.44c0.34-1.08,0.99-1.23,1.64-1.23 h23.05C306.65,73.2,308.46,73.2,309.31,73.1z"></path> </g> </g> </g> </svg> 