<svg xmlns="http://www.w3.org/2000/svg" width="205" height="36" fill="none"><path fill="#006FAC" fill-rule="evenodd" d="m63.71 28.918 2.163.651c-.145.608-.373 1.114-.684 1.52a2.94 2.94 0 0 1-1.154.917c-.462.21-1.049.311-1.758.311-.863 0-1.568-.123-2.115-.375-.547-.256-1.019-.696-1.416-1.333-.395-.639-.594-1.453-.594-2.444 0-1.326.346-2.342 1.046-3.052.697-.711 1.685-1.065 2.96-1.065.999 0 1.785.202 2.355.609.575.41.997 1.035 1.275 1.876l-2.156.489c-.078-.242-.155-.421-.239-.535a1.403 1.403 0 0 0-1.169-.588c-.558 0-.983.224-1.28.675-.223.337-.336.859-.336 1.58 0 .884.135 1.491.398 1.82.267.33.643.495 1.124.495.467 0 .826-.131 1.06-.398.24-.265.417-.648.52-1.154ZM69.141 28.197c0 .81.148 1.39.444 1.742.297.354.7.53 1.21.53.525 0 .933-.175 1.22-.52.286-.343.43-.967.43-1.863 0-.755-.15-1.302-.45-1.651-.301-.346-.71-.521-1.222-.521-.49 0-.888.177-1.185.53-.299.351-.447.938-.447 1.753Zm-2.457-.007c0-1.308.36-2.325 1.083-3.05.72-.729 1.723-1.092 3.013-1.092 1.32 0 2.336.356 3.05 1.071.713.714 1.07 1.718 1.07 3.005 0 .935-.157 1.7-.464 2.3a3.402 3.402 0 0 1-1.356 1.397c-.59.331-1.322.496-2.204.496-.894 0-1.634-.142-2.221-.427-.587-.29-1.06-.746-1.424-1.367-.364-.621-.547-1.398-.547-2.333ZM76.144 24.188h3.234l1.237 4.864 1.239-4.864h3.222v7.989h-2.01v-6.086l-1.553 6.086H79.7l-1.547-6.086v6.086h-2.009v-7.99ZM89.023 27.607h.605c.477 0 .809-.083 1-.251a.8.8 0 0 0 .289-.635.9.9 0 0 0-.252-.64c-.167-.175-.48-.26-.939-.26h-.703v1.786Zm-2.456-3.42h4.077c.89 0 1.557.215 2 .64.442.425.664 1.032.664 1.816 0 .81-.24 1.438-.726 1.895-.484.453-1.219.68-2.211.68h-1.348v2.959h-2.456v-7.99ZM94.53 24.188h2.457v6.025h3.837v1.964H94.53v-7.99ZM101.867 24.188h6.561v1.71h-4.1v1.265h3.802v1.63h-3.802v1.58h4.213v1.804h-6.674v-7.99ZM109.25 24.188h7.47v1.981h-2.507v6.008h-2.455v-6.008h-2.508v-1.982ZM117.76 24.188h6.557v1.71h-4.1v1.265h3.802v1.63h-3.802v1.58h4.217v1.804h-6.674v-7.99ZM133.699 29.14l-.862-2.877-.868 2.877h1.73Zm.518 1.722h-2.769l-.397 1.315h-2.504l2.977-7.99h2.687l2.968 7.99h-2.565l-.397-1.315ZM143.074 24.188h2.44v4.764c0 .471-.073.916-.222 1.336-.145.419-.372.786-.683 1.1-.315.315-.64.54-.983.663-.476.178-1.048.266-1.716.266-.388 0-.808-.026-1.266-.08-.454-.055-.836-.163-1.145-.324a2.874 2.874 0 0 1-.838-.69 2.447 2.447 0 0 1-.521-.92c-.153-.507-.229-.961-.229-1.35v-4.765h2.443v4.876c0 .435.114.774.355 1.02.241.243.578.366 1.007.366.422 0 .756-.119.996-.359.242-.242.362-.584.362-1.027v-4.877ZM146.521 24.188h7.472v1.981h-2.505v6.008h-2.458v-6.008h-2.509v-1.982ZM157.176 28.197c0 .81.149 1.39.445 1.742.296.354.699.53 1.208.53.526 0 .934-.175 1.216-.52.292-.343.434-.967.434-1.863 0-.755-.144-1.302-.449-1.651-.301-.346-.709-.521-1.224-.521-.492 0-.885.177-1.183.53-.298.351-.447.938-.447 1.753Zm-2.456-.007c0-1.308.361-2.325 1.081-3.05.718-.729 1.723-1.092 3.014-1.092 1.319 0 2.336.356 3.053 1.071.71.714 1.067 1.718 1.067 3.005 0 .935-.155 1.7-.464 2.3a3.4 3.4 0 0 1-1.353 1.397c-.592.331-1.328.496-2.203.496-.898 0-1.636-.142-2.222-.427-.59-.29-1.064-.746-1.425-1.367-.367-.621-.548-1.398-.548-2.333ZM173.127 28.918l2.158.651c-.146.608-.374 1.114-.682 1.52-.31.406-.694.713-1.157.917-.461.21-1.042.311-1.756.311-.863 0-1.567-.123-2.117-.375-.543-.256-1.02-.696-1.417-1.333-.392-.639-.59-1.453-.59-2.444 0-1.326.346-2.342 1.045-3.052.697-.711 1.684-1.065 2.96-1.065 1 0 1.787.202 2.356.609.575.41.998 1.035 1.275 1.876l-2.16.489c-.075-.242-.154-.421-.238-.535a1.403 1.403 0 0 0-1.167-.588c-.559 0-.986.224-1.282.675-.223.337-.335.859-.335 1.58 0 .884.135 1.491.4 1.82.269.33.643.495 1.123.495.47 0 .825-.131 1.061-.398.238-.265.413-.648.523-1.154ZM180.767 29.14l-.856-2.877-.869 2.877h1.725Zm.525 1.722h-2.772l-.397 1.315h-2.507l2.982-7.99h2.684l2.97 7.99h-2.57l-.39-1.315ZM187.475 27.432h1.041c.113 0 .333-.038.658-.108a.658.658 0 0 0 .4-.252.745.745 0 0 0 .156-.466c0-.259-.083-.457-.245-.594-.165-.14-.474-.21-.926-.21h-1.084v1.63Zm-2.458 4.745v-7.99h4.091c.759 0 1.339.067 1.739.198.401.128.727.37.975.727.24.355.364.786.364 1.295 0 .444-.092.827-.278 1.148a2.244 2.244 0 0 1-.777.783c-.211.126-.504.231-.868.315.291.098.508.196.639.294.09.068.221.207.393.422.173.215.287.379.348.495l1.192 2.313h-2.772l-1.32-2.446c-.167-.31-.317-.518-.441-.612a1.06 1.06 0 0 0-.613-.184h-.214v3.242h-2.458ZM193.558 24.188h6.562v1.71h-4.102v1.265h3.798v1.63h-3.798v1.58h4.216v1.804h-6.676v-7.99ZM201.168 24.166h1.615v.438h-.517v1.234h-.578v-1.234h-.52v-.438ZM202.962 25.838v-1.672h.696l.309 1.04.308-1.04h.698v1.672h-.519v-.51l.01-.259.026-.304h-.003l-.32 1.073h-.402l-.316-1.073h-.005l.021.244.014.265v.564h-.517Z" clip-rule="evenodd"/><path fill="red" fill-rule="evenodd" d="m66.12 6.794 6.292-2.12c1.699 1.301 1.796 2.32 1.751 5.424-.052 3.108-.537 5.243 1.8 6.401l-5.936 1.997c-2.516-1.287-2.29-2.643-2.24-6.168.048-3.465.275-4.375-1.666-5.534ZM85.529 10.264c-.085 2.807-.698 5.349 1.814 6.213L81.7 18.473c-2.518-1.287-2.29-2.642-2.239-6.169.045-3.463.275-4.374-1.674-5.533l6.002-2.12c.917.7 1.366 1.315 1.582 2.212l4.974-2.04 3.178 5.099-4.767 2.598-1.883-2.69-1.344.434ZM106.803 4.846l4.803 5.596-8.274 3.583c1.524 1.887 6.229.865 7.822-.118l-2.532 4.014c-8.599 2.721-14.536-2.149-13.175-7.48 1.2-4.7 8.631-5.625 11.356-5.595Zm-5.355 7.263 3.314-1.484-2.045-2.343c-1.526.394-2.077 2.16-1.269 3.827ZM121.608 14.806l-5.434-3.163c-2.924-1.732-1.29-2.692-.227-3.306l6.458-3.618 7.201 3.835-1.752 1.509-3.959-2.19c-.844-.557-1.997.383-.682 1.298l5.19 3.054c2.403 1.242 1.658 2.756.26 3.56l-6.683 3.49-7.365-3.985 1.862-1.586 4.305 2.449c1.1.684 2.169-.368.826-1.347ZM140.136 2.009l-9.33 6.559h3.161v6.423c.099 1.67.442 2.692 2.047 3.523l6.226-2.179c-1.454-.74-2.104-1.205-2.104-2.83V8.568h3.567v-3.27h-3.567v-3.29ZM163.09 11.012c.223 4.087-1.749 5.608-7.836 7.743-5.355-.972-8.765-2.967-9.292-6.63-.444-3.015.629-5.382 8.809-7.511 3.113 1.02 8.126 2.783 8.319 6.398Zm-9.929-3.152c-1.876 2.48.053 6.86 2.874 7.184 1.316-1.83.729-5.912-2.874-7.184ZM183.287 9.671v4.605c0 1.361.517 1.98 1.85 2.442l-5.842 2.012c-1.559-.896-2.01-1.761-2.01-3.214V11.62c0-1.67-.748-2.32-1.428-2.597l-2.12.618v4.82c0 1.455.592 1.765 1.497 2.293l-5.802 1.912c-2.079-1.235-1.805-2.596-1.756-6.122.049-3.46.181-4.373-1.763-5.531l5.998-2.117c.911.695 1.193 1.279 1.414 2.181l4.865-1.67c3.05-1.235 5.064 1.575 5.064 4.17M199.403 4.933l4.801 5.598-8.277 3.585c1.525 1.883 6.234.862 7.821-.129l-2.527 4.022c-8.603 2.72-14.54-2.146-13.177-7.479 1.199-4.7 8.63-5.629 11.359-5.597Zm-5.356 7.266 3.31-1.485-2.044-2.35c-1.526.402-2.077 2.166-1.266 3.835ZM50.001 22.828c3.644-.194 8.536-1.577 7.382-8.665 1.058-.885 2.562-.562 3.468.181l1.872-3.94c-1.901-1.484-4.043-1.02-5.988.556-.585-1.532-.726-3.155.292-4.17 5.06.647 9.54-.558 9.488-6.215-3.5 2.271-6.13 1.485-9.729.738C51.382.204 46.663.666 45.638 7.854c2.528-1.622 5.501-1.81 6.865-1.393-1.9 2.735-3.06 4.438-1.513 10.016.438 1.58 1.04 3.972-.989 6.351Z" clip-rule="evenodd"/><path fill="red" fill-rule="evenodd" d="M85.534 10.264c-.085 2.809-.7 5.349 1.814 6.213l-5.645 1.996c-2.517-1.287-2.288-2.643-2.239-6.166.047-3.465.275-4.377-1.672-5.536l6.002-2.118c.915.697 1.366 1.314 1.58 2.212l4.973-2.042 3.18 5.1-4.767 2.6-1.884-2.69-1.342.43ZM183.287 9.671v4.605c0 1.361.52 1.98 1.853 2.442l-5.842 2.012c-1.561-.896-2.011-1.761-2.011-3.214V11.62c0-1.67-.747-2.32-1.427-2.597l-2.12.618v4.82c0 1.455.593 1.765 1.497 2.293l-5.804 1.912c-2.077-1.235-1.803-2.596-1.754-6.122.048-3.46.179-4.373-1.766-5.531l5.998-2.117c.915.695 1.198 1.279 1.416 2.181l4.865-1.67c3.05-1.235 5.063 1.575 5.063 4.17M127.845 10.06l-3.959-2.193c-.844-.556-1.996.382-.68 1.298l5.188 3.057c2.404 1.24 1.659 2.754.262 3.56l-6.685 3.49-7.364-3.986 1.863-1.585 4.304 2.449c1.099.682 2.168-.369.826-1.35l-5.436-3.163c-2.921-1.73-1.287-2.695-.226-3.304l6.459-3.617 7.201 3.834-1.753 1.51ZM140.14 2.005l-9.328 6.559h3.162v6.425c.097 1.667.44 2.69 2.045 3.523l6.228-2.18c-1.458-.743-2.107-1.203-2.107-2.828v-4.94h3.568V5.295h-3.568v-3.29Z" clip-rule="evenodd"/><mask id="a" width="55" height="35" x="0" y="1" maskUnits="userSpaceOnUse" style="mask-type:alpha"><path fill="#fff" d="M0 1.94h54.615v33.352H0V1.939Z"/></mask><g fill-rule="evenodd" clip-rule="evenodd" mask="url(#a)"><path fill="red" d="M48.16 9.024s-1.614 1.965-.153 6.139c0 0 2.706 5.269-2.706 9.876H0V7.807S23.192 1.312 45.57 1.99c0 0-2.995 1.47-2.995 9.947 0 0 2.642-2.828 5.586-2.912Z"/><path fill="#006FAC" d="M0 24.2s18.258-1.657 34.56.094c0 0 12.784 1.564 20.055.037v10.968s-38.704.76-54.615-5.56V24.2Z"/></g><path fill="#FFFFFE" fill-rule="evenodd" d="m17.697 30.514 1.1-.1a.525.525 0 0 0 .189.269c.081.056.19.084.326.084a.56.56 0 0 0 .34-.092c.064-.045.098-.104.098-.169 0-.077-.043-.137-.122-.178-.059-.031-.218-.063-.475-.11-.383-.064-.65-.123-.8-.177a.865.865 0 0 1-.38-.278.693.693 0 0 1-.153-.44c0-.185.055-.342.167-.474.107-.13.26-.23.457-.296.19-.061.455-.094.776-.094.345 0 .602.026.766.073.164.052.3.13.41.234.11.109.2.247.274.426l-1.052.102a.37.37 0 0 0-.134-.195.57.57 0 0 0-.315-.087c-.123 0-.214.022-.27.065a.185.185 0 0 0-.084.155c0 .066.034.119.106.155.07.033.227.066.47.09.37.043.64.1.82.168a.924.924 0 0 1 .415.306c.094.13.141.275.141.433a.83.83 0 0 1-.15.466c-.101.15-.26.27-.476.36-.217.091-.51.132-.882.132-.531 0-.906-.07-1.13-.215a.968.968 0 0 1-.432-.613ZM21.456 28.192h1.11v-.718h-1.11v.718Zm0 3.09h1.11v-2.761h-1.11v2.761ZM23.386 28.52h1.034v.451c.151-.185.309-.317.466-.396.16-.076.352-.116.58-.116.307 0 .547.087.721.262.173.176.26.443.26.808v1.753h-1.115v-1.52c0-.173-.033-.296-.101-.366a.37.37 0 0 0-.284-.11.413.413 0 0 0-.326.148c-.085.096-.125.271-.125.52v1.328h-1.11v-2.761ZM29.38 30.201l1.058.11a1.3 1.3 0 0 1-.793.904c-.207.086-.47.127-.787.127-.307 0-.564-.028-.77-.08a1.361 1.361 0 0 1-.876-.694c-.079-.167-.12-.383-.12-.657 0-.282.049-.518.151-.708a1.2 1.2 0 0 1 .304-.372c.13-.108.263-.192.4-.245.213-.085.492-.127.831-.127.472 0 .834.08 1.08.24.248.161.425.398.523.707l-1.044.133a.435.435 0 0 0-.175-.264.602.602 0 0 0-.354-.09.57.57 0 0 0-.446.188c-.114.125-.17.313-.17.568 0 .227.055.398.168.515.112.12.255.177.43.177a.632.632 0 0 0 .368-.104.654.654 0 0 0 .222-.328ZM34.273 30.164h-2.232c.02.169.069.3.148.382.106.12.246.18.42.18.11 0 .212-.025.313-.08a.682.682 0 0 0 .195-.17l1.091.093c-.168.277-.37.475-.605.595-.236.12-.577.178-1.017.178-.386 0-.687-.049-.909-.153a1.318 1.318 0 0 1-.543-.491 1.41 1.41 0 0 1-.218-.793c0-.43.148-.778.435-1.045.288-.27.69-.401 1.2-.401.419 0 .744.058.985.18.241.12.422.293.548.518.128.226.19.525.19.888v.119Zm-1.124-.508c-.024-.206-.082-.352-.175-.439a.53.53 0 0 0-.372-.133.52.52 0 0 0-.428.198.709.709 0 0 0-.133.374h1.108ZM38.813 27.408v3.874H37.69v-2.537a3.141 3.141 0 0 1-.526.316c-.17.084-.383.16-.642.233v-.858c.38-.117.672-.258.88-.42.21-.165.373-.366.493-.608h.917ZM39.842 30.427l1.1-.132c.032.146.08.25.15.31.07.06.154.09.252.09.182 0 .319-.084.421-.257.072-.127.128-.393.162-.802-.132.13-.267.227-.407.29-.14.057-.3.09-.483.09a1.24 1.24 0 0 1-.907-.365 1.24 1.24 0 0 1-.37-.917c0-.253.065-.484.19-.693.125-.206.297-.365.515-.47.222-.108.498-.163.83-.163.398 0 .72.069.962.2.243.13.435.337.58.622.145.283.216.658.216 1.126 0 .686-.152 1.19-.454 1.508-.303.32-.726.478-1.263.478-.318 0-.57-.032-.755-.103a1.177 1.177 0 0 1-.457-.307 1.399 1.399 0 0 1-.282-.505Zm2.047-1.7c0-.207-.054-.37-.164-.485a.522.522 0 0 0-.397-.177.47.47 0 0 0-.362.161c-.099.105-.145.264-.145.475 0 .213.05.376.149.488a.49.49 0 0 0 .373.17.522.522 0 0 0 .392-.163c.102-.11.154-.267.154-.47ZM46.878 31.282h-3.33c.039-.314.153-.608.347-.885.194-.275.557-.598 1.09-.974.325-.231.536-.406.627-.523a.586.586 0 0 0 .135-.344.394.394 0 0 0-.135-.296.506.506 0 0 0-.341-.122.513.513 0 0 0-.351.124c-.089.085-.154.233-.18.446l-1.11-.082c.045-.3.121-.531.238-.698.119-.166.28-.296.493-.384.213-.09.507-.136.88-.136.393 0 .696.044.913.13.217.086.39.217.515.39.123.176.185.372.185.592 0 .232-.072.456-.216.664-.141.214-.401.445-.776.698-.225.147-.375.25-.451.306-.074.062-.16.137-.266.232h1.733v.862ZM50.682 28.33l-1.101.129c-.028-.148-.078-.25-.146-.31a.376.376 0 0 0-.254-.089c-.182 0-.322.085-.422.259-.074.124-.127.391-.161.798.132-.127.267-.22.408-.286.14-.061.3-.092.486-.092.354 0 .655.125.901.367.248.24.369.548.369.92 0 .249-.062.48-.186.688a1.184 1.184 0 0 1-.518.47c-.221.106-.498.158-.828.158-.402 0-.72-.062-.962-.191a1.422 1.422 0 0 1-.58-.622c-.144-.282-.216-.662-.216-1.131 0-.686.153-1.19.454-1.51.306-.317.724-.48 1.263-.48.32 0 .57.037.753.109.187.068.339.17.464.303.12.137.212.305.276.51Zm-2.049 1.699c0 .206.059.366.165.485.111.115.242.173.404.173a.484.484 0 0 0 .363-.159c.1-.107.148-.263.148-.471 0-.215-.05-.38-.153-.491a.492.492 0 0 0-.38-.168.52.52 0 0 0-.39.162c-.103.109-.157.266-.157.469Z" clip-rule="evenodd"/></svg>