<?xml version="1.0" encoding="UTF-8"?>
<svg xmlns="http://www.w3.org/2000/svg" version="1.1" viewBox="0 0 616 164">
  <defs>
    <style>
      .cls-1 {
        fill: #349d65;
      }

      .cls-2 {
        fill: #535250;
      }
    </style>
  </defs>
  <!-- Generator: Adobe Illustrator 28.7.1, SVG Export Plug-In . SVG Version: 1.2.0 Build 142)  -->
  <g>
    <g id="Layer_1">
      <g>
        <path class="cls-2" d="M261.282,142.791l-1.197-2.927h-6.785l-1.197,2.927h-2.262l5.587-13.969h2.528l5.587,13.969h-2.262ZM256.891,130.685l-2.661,7.317h5.587l-2.927-7.317Z"/>
        <path class="cls-2" d="M287.09,140.929l1.197,1.33-1.33,1.197-1.33-1.33c-.931.532-2.262.931-3.725.931-4.124,0-6.918-3.06-6.918-7.184s2.927-7.184,6.918-7.184,6.918,3.06,6.918,7.184-.798,3.858-1.996,5.055h.266ZM284.163,140.53l-1.996-2.129,1.596-1.197,1.729,2.129c.798-.931,1.197-2.129,1.197-3.459,0-3.06-1.996-5.454-4.789-5.454s-4.789,2.262-4.789,5.454,1.996,5.454,4.789,5.454,1.596-.133,2.262-.532h0v-.266Z"/>
        <path class="cls-2" d="M293.875,128.956h2.129v8.381c0,2.262,1.33,3.858,3.725,3.858s3.725-1.596,3.725-3.858v-8.381h2.129v8.514c0,3.459-1.996,5.587-5.853,5.587s-5.853-2.262-5.853-5.587v-8.514h0Z"/>
        <path class="cls-2" d="M320.348,142.791l-1.197-2.927h-6.785l-1.197,2.927h-2.262l5.587-13.969h2.528l5.587,13.969h-2.262ZM315.692,130.685l-2.661,7.317h5.587l-2.927-7.317Z"/>
        <path class="cls-2" d="M326.734,142.791v-13.969h2.129v11.973h6.386v1.729h-8.514v.266Z"/>
        <path class="cls-2" d="M339.771,142.791v-13.969h2.129v13.969h-2.129Z"/>
        <path class="cls-2" d="M350.813,142.791v-11.973h-4.257v-1.729h10.643v1.729h-4.257v11.973h-2.129,0Z"/>
        <path class="cls-2" d="M365.713,142.791v-5.853l-5.454-8.115h2.262l4.124,6.253,4.124-6.253h2.262l-5.454,8.115v5.853h-2.129.266Z"/>
        <path class="cls-2" d="M384.471,135.874c0-4.257,3.06-7.184,7.184-7.184s4.39,1.33,5.587,2.927l-1.729.931c-.798-1.197-2.129-1.996-3.725-1.996-2.927,0-5.055,2.129-5.055,5.454s2.129,5.454,5.055,5.454,3.06-.798,3.725-1.996l1.729.931c-1.197,1.596-2.661,2.927-5.587,2.927s-7.184-2.927-7.184-7.184v-.399h0v.133Z"/>
        <path class="cls-2" d="M407.885,128.69c4.124,0,6.918,3.06,6.918,7.184s-2.927,7.184-6.918,7.184-6.918-3.06-6.918-7.184,2.927-7.184,6.918-7.184ZM407.885,130.419c-2.927,0-4.789,2.262-4.789,5.454s1.996,5.454,4.789,5.454,4.789-2.262,4.789-5.454-1.996-5.454-4.789-5.454Z"/>
        <path class="cls-2" d="M431.698,142.791v-11.042l-4.39,11.042h-.931l-4.39-11.042v11.042h-2.129v-13.969h2.927l4.124,10.111,4.124-10.111h2.927v13.969h-2.129.133-.266Z"/>
        <path class="cls-2" d="M439.414,142.791v-13.969h5.853c2.927,0,4.39,1.996,4.39,4.257s-1.596,4.257-4.39,4.257h-3.725v5.454h-2.129ZM444.868,130.685h-3.459v4.789h3.459c1.596,0,2.528-.931,2.528-2.528s-.931-2.528-2.528-2.528h0v.266Z"/>
        <path class="cls-2" d="M462.428,142.791l-1.197-2.927h-6.785l-1.197,2.927h-2.262l5.587-13.969h2.528l5.587,13.969h-2.262ZM458.038,130.685l-2.661,7.317h5.587l-2.927-7.317h0Z"/>
        <path class="cls-2" d="M478.525,142.791l-7.716-10.643v10.643h-2.129v-13.969h2.129l7.583,10.51v-10.51h2.129v13.969h-1.996Z"/>
        <path class="cls-2" d="M490.099,142.791v-5.853l-5.454-8.115h2.262l4.124,6.253,4.124-6.253h2.262l-5.454,8.115v5.853h-2.129.266Z"/>
      </g>
      <path class="cls-1" d="M25.513-55.944c.031.011.064.02.095.03-.028-.009-.055-.02-.082-.03-.004,0-.009,0-.013,0Z"/>
      <path class="cls-1" d="M25.513-55.944c.031.011.064.02.095.03-.028-.009-.055-.02-.082-.03-.004,0-.009,0-.013,0Z"/>
      <g>
        <path class="cls-2" d="M215.099,59.977c0-14.497-22.235-13.97-22.235-22.344,0-4.482,6.259-5.977,10.926-5.977,4.765,0,9.72,1.123,13.552,2.691l3.083-8.594c-5.326-1.719-11.211-2.314-16.911-2.314-12.517,0-24.288,4.781-24.288,15.762,0,13.902,22.235,12.408,22.235,21.825,0,5.603-6.164,8.145-12.423,8.145-5.608,0-10.935-1.716-15.976-3.589l-3.359,8.894c5.88,1.722,12.327,2.913,18.585,2.913,14.294,0,26.811-4.632,26.811-17.41Z"/>
        <path class="cls-2" d="M246.957,77.387c4.953,0,9.997-.374,14.766-1.418l2.053-10.01c-3.735,1.792-8.223,3.21-13.737,3.21-11.491,0-18.591-7.771-18.591-16.511,0-12.261,10.182-21.002,24.664-21.002,7.011,0,11.964,1.421,14.952,3.064l3.271-8.745c-5.7-1.868-12.612-2.537-19.152-2.537-23.081,0-37.375,12.403-37.375,29.22,0,14.119,9.435,24.729,29.149,24.729Z"/>
        <polygon class="cls-2" points="279.565 76.494 285.547 53.624 311.888 53.624 305.914 76.494 318.993 76.494 332.631 24.332 319.552 24.332 314.04 45.406 287.694 45.406 293.203 24.332 280.124 24.332 266.488 76.494 279.565 76.494"/>
        <path class="cls-2" d="M336.74,76.494l8.317-11.956h27.746l2.241,11.956h13.087l-11.87-52.162h-14.482l-39.517,52.162h14.477ZM366.544,33.6h.371l4.117,22.715h-20.181l15.694-22.715Z"/>
        <polygon class="cls-2" points="432.783 68.276 407.001 68.276 410.831 53.624 433.718 53.624 435.777 45.406 412.978 45.406 416.337 32.549 441.842 32.549 443.812 24.332 405.413 24.332 391.678 76.494 430.542 76.494 432.783 68.276"/>
        <polygon class="cls-2" points="451.847 76.494 457.823 53.624 479.687 53.624 481.745 45.406 459.976 45.406 463.429 32.549 486.223 32.549 488.469 24.332 452.5 24.332 438.765 76.494 451.847 76.494"/>
        <polygon class="cls-2" points="519.486 76.494 521.732 68.276 495.94 68.276 499.774 53.624 522.662 53.624 524.72 45.406 501.922 45.406 505.286 32.549 530.791 32.549 532.755 24.332 494.352 24.332 480.622 76.494 519.486 76.494"/>
        <path class="cls-2" d="M539.855,76.494l5.7-21.673h4.952c7.095,0,6.724,3.887,8.218,9.414l3.176,12.259h13.74l-6.264-20.999c-.841-2.837-3.082-4.634-6.635-4.785v-.146c10.652-.152,19.058-4.935,19.058-13.897,0-12.484-13.918-12.335-25.97-12.335h-15.417l-13.641,52.162h13.082ZM551.532,32.549h5.423c5.323,0,11.211,0,11.211,5.459,0,6.875-8.5,8.594-15.511,8.594h-4.765l3.641-14.053Z"/>
        <path class="cls-2" d="M188.51,89.617l-18.933,24.993h6.938l3.986-5.734h13.291l1.076,5.734h6.264l-5.681-24.993h-6.94ZM183.276,104.943l7.518-10.882h.18l1.972,10.882h-9.67Z"/>
        <path class="cls-2" d="M223.205,102.294c-1.118,4.117-2.33,8.808-8.777,8.808-6.938,0-5.279-6.123-4.252-9.634l3.182-11.851h-6.269l-3.584,13.57c-1.829,7.126.677,11.849,10.882,11.849,8.683,0,12.444-3.9,14.236-10.307l4.164-15.111h-6.178l-3.403,12.677Z"/>
        <polygon class="cls-2" points="258.26 89.617 234.129 89.617 233.055 93.559 241.877 93.559 236.187 114.61 242.723 114.61 248.412 93.559 257.231 93.559 258.26 89.617"/>
        <path class="cls-2" d="M272.721,89.186c-5.104,0-9.446,1.541-12.849,4.655-3.176,2.973-4.924,6.839-4.924,10.814,0,5.945,4.611,10.381,12.309,10.381,5.24,0,9.986-1.285,13.257-4.187,3.356-3.007,5.237-6.982,5.237-11.063,0-6.661-4.566-10.6-13.029-10.6ZM268.066,111.102c-4.522,0-6.583-2.905-6.583-6.159,0-5.047,3.762-11.817,11.06-11.817,4.519,0,6.669,2.795,6.669,6.123,0,4.979-3.983,11.854-11.146,11.854Z"/>
        <path class="cls-2" d="M301.105,89.617h-9.268l-6.536,24.993h8.91c4.655,0,14.68-.575,14.68-7.737,0-2.685-1.517-4.835-5.013-5.261v-.076c3.628-.46,6.672-2.897,6.672-5.94,0-4.545-4.566-5.979-9.446-5.979ZM294.48,110.669h-2.15l1.881-7.23h2.014c3.354,0,6.405.392,6.405,3.009,0,3.866-4.3,4.221-8.15,4.221ZM297.656,99.713h-2.463l1.659-6.154h2.194c2.372,0,5.235.105,5.235,2.505,0,2.933-3.443,3.649-6.625,3.649Z"/>
        <path class="cls-2" d="M330.248,89.186c-5.101,0-9.445,1.541-12.849,4.655-3.176,2.973-4.924,6.839-4.924,10.814,0,5.945,4.61,10.381,12.314,10.381,5.237,0,9.981-1.285,13.251-4.187,3.354-3.007,5.235-6.982,5.235-11.063,0-6.661-4.566-10.6-13.027-10.6ZM325.591,111.102c-4.519,0-6.58-2.905-6.58-6.159,0-5.047,3.764-11.817,11.057-11.817,4.524,0,6.672,2.795,6.672,6.123,0,4.979-3.986,11.854-11.149,11.854Z"/>
        <path class="cls-2" d="M359.259,89.617h-9.401l-6.583,24.993h10.522c15.762,0,19.429-8.521,19.429-14.322,0-8.667-7.429-10.671-13.967-10.671ZM353.53,110.669h-2.915l4.482-17.11h2.15c5.64,0,9.443,2.108,9.443,6.013,0,6.875-4.122,11.097-13.16,11.097Z"/>
        <polygon class="cls-2" points="384.913 100.11 380.253 89.617 373.628 89.617 380.974 104.263 378.236 114.61 384.505 114.61 387.243 104.263 402.373 89.617 395.074 89.617 384.913 100.11"/>
        <path class="cls-2" d="M416.112,103.187c0-5.872,4.879-10.062,11.817-10.062,3.359,0,5.731.679,7.162,1.468l1.567-4.187c-2.732-.899-6.044-1.22-9.179-1.22-11.055,0-17.898,5.945-17.898,14.001,0,6.768,4.514,11.849,13.959,11.849,2.372,0,4.791-.178,7.074-.679l.987-4.799c-1.792.865-3.944,1.544-6.583,1.544-5.506,0-8.908-3.728-8.908-7.915Z"/>
        <polygon class="cls-2" points="444.81 93.559 457.029 93.559 457.969 89.617 439.564 89.617 432.987 114.61 451.612 114.61 452.683 110.669 440.332 110.669 442.166 103.652 453.137 103.652 454.119 99.713 443.195 99.713 444.81 93.559"/>
        <polygon class="cls-2" points="476.683 108.594 476.589 108.594 469.923 89.617 461.998 89.617 455.279 114.61 461.282 114.61 466.255 95.453 466.344 95.453 472.88 114.61 480.936 114.61 487.696 89.617 481.787 89.617 476.683 108.594"/>
        <polygon class="cls-2" points="513.123 89.617 488.992 89.617 487.915 93.559 496.734 93.559 491.055 114.61 497.591 114.61 503.275 93.559 512.093 93.559 513.123 89.617"/>
        <polygon class="cls-2" points="519.93 93.559 532.155 93.559 533.09 89.617 514.695 89.617 508.112 114.61 526.732 114.61 527.808 110.669 515.453 110.669 517.286 103.652 528.257 103.652 529.24 99.713 518.316 99.713 519.93 93.559"/>
        <path class="cls-2" d="M547.462,102.257v-.073c5.104-.071,9.132-2.364,9.132-6.661,0-5.977-6.666-5.906-12.444-5.906h-7.387l-6.536,24.993h6.264l2.732-10.383h2.377c3.396,0,3.218,1.863,3.939,4.514l1.52,5.869h6.577l-2.999-10.065c-.402-1.358-1.479-2.22-3.176-2.288ZM542.624,100.288h-2.283l1.75-6.729h2.591c2.555,0,5.376,0,5.376,2.61,0,3.294-4.075,4.119-7.434,4.119Z"/>
        <path class="cls-2" d="M559.326,96.743c0,6.661,10.658,5.943,10.658,10.451,0,2.686-2.962,3.908-5.956,3.908-2.685,0-5.24-.825-7.654-1.724l-1.614,4.263c2.821.825,5.903,1.395,8.908,1.395,6.849,0,12.852-2.215,12.852-8.343,0-6.943-10.657-6.692-10.657-10.704,0-2.147,2.999-2.863,5.235-2.863,2.283,0,4.655.538,6.494,1.29l1.479-4.119c-2.55-.823-5.376-1.11-8.103-1.11-6.003,0-11.64,2.293-11.64,7.557Z"/>
      </g>
      <g>
        <path class="cls-1" d="M143.791,43.475c7.408,11.326,12.531,22.775,12.531,39.671,0,40.244-30.104,71.426-73.342,72.42-8.808.203-14.465-.718-21.356-2.88,1.005.024,2.013.071,3.015.071,36.504,0,68.59-12.032,68.919-45.208.374-37.64-56.415-36.28-56.201-58.011.115-11.639,16.137-15.324,28.066-15.521,19.879-.328,38.369,9.457,38.369,9.457"/>
        <path class="cls-1" d="M66.758,131.413c15.983,0,31.796-6.595,31.94-21.148.244-24.445-56.573-20.566-56.21-56.651.275-27.695,28.743-40.204,59.662-40.904-5.969-1.58-12.234-2.433-18.699-2.433C43.207,10.276,9.777,43.63,9.777,83.874c0,16.038,5.904,29.493,10.149,36.036,0,0,20.396,11.502,46.831,11.502Z"/>
      </g>
    </g>
  </g>
</svg>